<svg xmlns="http://www.w3.org/2000/svg" viewBox="0 0 79.68 65.48"><defs><style>.cls-1{fill:#a67c52;}.cls-1,.cls-2,.cls-3{stroke:#8c6239;stroke-miterlimit:10;}.cls-2{fill:#ff931e;}.cls-3{fill:none;}.cls-4{fill:#404041;}</style></defs><title>Asset 19</title><g id="Layer_2" data-name="Layer 2"><g id="name"><circle class="cls-1" cx="54.69" cy="24.99" r="24.49"/><path class="cls-2" d="M49.15,19.21c-4.23-3.83-14.46,1.26-20.25,4.15-6.49,3.23-12.51,6.23-18,12.72C1.06,47.85-.93,64,1.36,64.94c1.72.74,4.17-7.6,13.43-16.75C30.6,32.55,50.18,34,51,24.64A6.7,6.7,0,0,0,49.15,19.21Z"/><path class="cls-3" d="M1.25,64.77a57.16,57.16,0,0,1,21.13-30.7A59.73,59.73,0,0,1,40.5,25.14"/><ellipse class="cls-4" cx="39.82" cy="14.11" rx="3.09" ry="2.55" transform="translate(15.83 48.89) rotate(-74.92)"/><ellipse class="cls-4" cx="57.98" cy="14.54" rx="3.09" ry="2.87" transform="translate(35.97 70.12) rotate(-82.48)"/></g></g></svg>