<svg xmlns="http://www.w3.org/2000/svg" viewBox="0 0 65.72 73.83"><defs><style>.cls-1,.cls-7{fill:#e6c3dd;}.cls-1,.cls-2{stroke:#736457;}.cls-1,.cls-2,.cls-5,.cls-6{stroke-miterlimit:10;}.cls-2,.cls-6{fill:#fff;}.cls-3{fill:#414141;}.cls-4{fill:#eb2027;}.cls-5{fill:none;}.cls-5,.cls-6{stroke:#333;stroke-width:0.75px;}</style></defs><title>Asset 20</title><g id="Layer_2" data-name="Layer 2"><g id="name"><path class="cls-1" d="M40.79,24.58c.57-3.38,2.62-6.22,5.47-7.16S52,18.92,56.77,23c3.08,2.61,8.26,7.67,7.3,9.1-.34.51-1.33.39-1.87.33-2.68-.33-3.73-2.62-6.88-5.6-2.52-2.38-4.55-4.31-6.68-4s-3.46,2.75-4.07,4.1"/><path class="cls-2" d="M33,22c1-6.27,4.85-11.52,10.12-13.27C51.45,5.94,59.42,13.22,62.6,19c3,5.42,3.32,12.35,1.52,13.13C61.23,33.38,55,17.85,47.56,18.72c-3.31.38-5.78,3.88-7.54,7.58"/><ellipse class="cls-2" cx="26.93" cy="46.78" rx="26.55" ry="26.43" transform="translate(-22.14 69.28) rotate(-84.7)"/><ellipse class="cls-3" cx="45.46" cy="35.64" rx="2.76" ry="3.35" transform="translate(-7.1 11.68) rotate(-13.59)"/><ellipse class="cls-3" cx="25.85" cy="35.76" rx="3.1" ry="3.35" transform="translate(-3.47 2.78) rotate(-5.78)"/><path class="cls-4" d="M41.68,45.05c-.18-.27-.84.25-2.18,0s-2.47-1-2.5-1.7c0-.19.06-.45,0-.47s-.25.35-.31.47a4.18,4.18,0,0,1-2.49,1.73c-1.45.4-2.31-.28-2.49,0-.36.57,2.06,4.23,5.32,4C40,49,42.06,45.6,41.68,45.05Z"/><path class="cls-5" d="M36.9,43.31A4.26,4.26,0,0,0,39.26,45a4.6,4.6,0,0,0,4-1"/><path class="cls-6" d="M35.11,47.59h1.14a.47.47,0,0,0,.46-.47V45.23c.2-.65.07-1.16-.17-1.25s-.58.28-.62.32l-.81.48a.46.46,0,0,0-.46.46v1.89A.45.45,0,0,0,35.11,47.59Z"/><path class="cls-6" d="M38.44,47.58H37.35a.45.45,0,0,1-.44-.46V45.23c-.2-.65-.08-1.16.14-1.25s.56.27.6.31l.79.47a.45.45,0,0,1,.45.46v1.89A.47.47,0,0,1,38.44,47.58Z"/><polygon class="cls-7" points="33.7 40.4 40.01 40.36 36.88 44.58 33.7 40.4"/><path class="cls-1" d="M15.4,25.15c-1.12-7.94.68-14.28,4-15.41,2.69-.92,6,1.69,10.52,5.56,3.08,2.62,8.26,7.67,7.3,9.1-.34.51-1.33.39-1.87.33-2.68-.33-3.73-2.61-6.88-5.6-1.4-1.32-5-4.8-6.68-4-1.87.93-.52,7.15-.16,8.72"/><path class="cls-2" d="M9.18,29.26C3.52,16.13,9,3.58,16.6,1c6.87-2.32,15.69,3.46,19.46,10.3,3,5.42,3.33,12.35,1.52,13.13C34.27,25.88,26,9.37,21,11c-2.7.91-3.32,6.9-3.13,13.79"/></g></g></svg>