<svg xmlns="http://www.w3.org/2000/svg" viewBox="0 0 1000.1 319.96"><defs><style>.cls-1{fill:#6d6e71;opacity:0.2;}.cls-12,.cls-2,.cls-7{fill:#fff;}.cls-2,.cls-26,.cls-28,.cls-3,.cls-30,.cls-31,.cls-32{stroke:#736457;}.cls-10,.cls-13,.cls-14,.cls-17,.cls-19,.cls-2,.cls-20,.cls-21,.cls-25,.cls-26,.cls-27,.cls-28,.cls-3,.cls-30,.cls-31,.cls-32,.cls-6,.cls-7,.cls-9{stroke-miterlimit:10;}.cls-3,.cls-8{fill:#e6c3dd;}.cls-4{fill:#414141;}.cls-5{fill:#eb2027;}.cls-14,.cls-20,.cls-25,.cls-27,.cls-32,.cls-6{fill:none;}.cls-6,.cls-7{stroke:#333;}.cls-17,.cls-6,.cls-7{stroke-width:0.75px;}.cls-15,.cls-9{fill:#a67c52;}.cls-10,.cls-13,.cls-14,.cls-9{stroke:#8c6239;}.cls-10{fill:#8dc63f;}.cls-11{fill:#726658;}.cls-13{fill:#ff931e;}.cls-16{fill:#404041;}.cls-17{fill:#fbed21;stroke:#3c2415;}.cls-18{fill:aqua;}.cls-19{fill:#7d6b60;}.cls-19,.cls-20{stroke:#603917;}.cls-21{fill:#b3b2b3;stroke:#414141;}.cls-22{fill:#c49a6c;}.cls-23{fill:#402312;}.cls-24{fill:#4d4e4e;}.cls-25{stroke:#4d4e4e;}.cls-26{fill:#aad596;}.cls-27{stroke:#fff;}.cls-28{fill:#05aa61;}.cls-29{fill:#544741;}.cls-30{fill:#f05a26;}.cls-31{fill:#8a5f3c;}.cls-33{fill:#f9d006;}.cls-34{fill:#f7931e;}.cls-35{fill:#d4145a;}.cls-36{fill:#0071bc;}.cls-37{fill:#8cc63f;}</style></defs><title>Asset 9</title><g id="Layer_2" data-name="Layer 2"><g id="ani"><ellipse class="cls-1" cx="84.79" cy="303.61" rx="60.26" ry="16.35"/><path class="cls-2" d="M118.27,250.9a58,58,0,0,1-2,18.22,56.77,56.77,0,0,1-2.44,7h0c-.48,2.25-.93,3.89-1,4-.82,3.11,7.13,16.52,3.81,21a3.24,3.24,0,0,1-2.71,1.39c-2.31-.3-3.2-4.93-4.13-4.74s0,5.22-2,6.16a2.72,2.72,0,0,1-2.73-.65c-1.69-1.54-.86-4.67-1.4-4.77s-1,4-3.36,4.81a3.83,3.83,0,0,1-3.41-.65c-3.67-2.9,3.35-11.62.62-22.77-.84-3.44-2.43-4.19-4.29-7a22.43,22.43,0,0,1-2.09-4.08,36.28,36.28,0,0,1-2.68-11.56"/><path class="cls-2" d="M121.06,180.18c2.08,5.18,5.09,7.21,6.51,8,6.5,3.55,17,1.37,22.59-4,1.16-1.11,3.5-3.68,4.58-3.09s-.05,3.41,1.32,4.33,3.46-.79,3.95-.13-1.6,2.38-1.07,3.61,3.48.81,3.7,1.64c.28,1.08-4,3-4,3-12,5.29-17.92,7.94-23,8.06a31.92,31.92,0,0,1-15.29-3,31.19,31.19,0,0,1-12-10.43"/><path class="cls-3" d="M94,98.62c.46-6.14,3.66-11.55,8.58-13.71,5.1-2.24,10.48,1.73,19.71,8.2,5.94,4.16,16,12.33,14.56,15-.53,1-2.32.92-3.29.89-4.84-.14-7.11-4-13.23-8.86-4.88-3.84-8.83-6.94-12.59-6s-5.73,5.5-6.59,8"/><path class="cls-2" d="M79.68,95.23c.84-11.37,6.76-21.38,15.88-25.38C110,63.54,125.4,75.24,132,85c6.23,9.18,8,21.52,4.89,23.21-5,2.7-18.66-24-31.82-21.23-5.85,1.24-9.67,7.9-12.2,14.81"/><path class="cls-2" d="M28,129.23A92.51,92.51,0,0,0,8.88,157.54c-11.35,26.39-13.74,67.15,9.3,87.9,8.29,7.46,17,9.75,26,12.12,22.14,5.81,66.13,8.56,82.37-16.92,14.91-23.37-1.85-57.45-12-78.09A156.34,156.34,0,0,0,89,125.43"/><ellipse class="cls-2" cx="72.91" cy="140.58" rx="47.43" ry="47.65"/><ellipse class="cls-4" cx="104.17" cy="117.61" rx="4.94" ry="6.01" transform="matrix(0.95, -0.32, 0.32, 0.95, -32.46, 40.04)"/><ellipse class="cls-4" cx="69.15" cy="121.05" rx="5.56" ry="6.01" transform="translate(-21.96 15.53) rotate(-11.07)"/><path class="cls-5" d="M99,135c-.36-.44-1.46.59-3.89.39-2.22-.19-4.58-1.32-4.76-2.64,0-.33,0-.82-.08-.84s-.38.66-.48.89c-.7,1.76-2.86,3-4.15,3.52-2.52.95-4.17-.13-4.45.44-.54,1.08,4.38,7.22,10.17,6.34C96.7,142.32,99.74,136,99,135Z"/><path class="cls-6" d="M90.14,132.73a7.76,7.76,0,0,0,4.5,2.54,8.25,8.25,0,0,0,6.91-2.53"/><path class="cls-6" d="M79,135.43a7.58,7.58,0,0,0,5,1.35A8.25,8.25,0,0,0,90,132.63"/><path class="cls-7" d="M87.66,140.67l2-.19a.85.85,0,0,0,.75-.92l-.33-3.37c.25-1.2-.06-2.09-.49-2.2s-1,.58-1.06.67l-1.38,1a.83.83,0,0,0-.74.91l.32,3.38A.84.84,0,0,0,87.66,140.67Z"/><path class="cls-7" d="M93.61,140.09l-1.94.19a.82.82,0,0,1-.88-.75l-.33-3.38c-.46-1.13-.34-2.06.05-2.25s1,.38,1.13.45l1.48.7a.83.83,0,0,1,.88.76l.33,3.37A.82.82,0,0,1,93.61,140.09Z"/><polygon class="cls-8" points="83.95 128.05 95.22 126.94 90.31 134.99 83.95 128.05"/><path class="cls-3" d="M48.72,103.84c-3.32-14-1.14-25.64,4.61-28.21C58,73.56,64.24,77.68,73,83.84c5.94,4.15,16,12.33,14.56,15-.52,1-2.32.92-3.29.89-4.84-.14-7.11-4-13.23-8.87-2.71-2.13-9.8-7.73-12.58-6-3.19,2,.25,12.87,1.15,15.6"/><path class="cls-2" d="M38.3,112.21C26,89.69,33.72,66.36,46.87,60.52c11.9-5.28,28.62,3.58,36.48,15.18,6.23,9.18,8,21.52,4.89,23.21C82.56,102,65,73.89,56.42,77.69c-4.67,2.07-4.78,12.89-3.3,25.16"/><path class="cls-2" d="M54.35,190.52c.74,5.52,3.16,8.24,4.35,9.34,5.42,5.06,16.11,5.54,22.87,1.73,1.4-.78,4.29-2.69,5.19-1.86s-.88,3.3.22,4.53,3.54.09,3.86.85-2.13,1.91-1.92,3.24,3.17,1.64,3.18,2.5c0,1.12-4.63,1.9-4.63,1.9-12.88,2.17-19.31,3.26-24.29,2.11a31.93,31.93,0,0,1-14.08-6.71A31.35,31.35,0,0,1,40,195.06"/><path class="cls-2" d="M66.2,250.39a66.84,66.84,0,0,1,1.22,9.66c.87,16.71-5.75,21.91-1.83,32.2,1.52,4,4.51,8.52,2.68,10.8a3.58,3.58,0,0,1-4,.92c-2.29-1.19-1.86-6-2.39-6s0,6.06-3,7.71a3.07,3.07,0,0,1-2.72.16c-2.61-1.29-1.91-7.37-2.47-7.39-.3,0-.24,1.73-1.16,3.5-1.14,2.17-3.64,4.19-5.23,3.73-1.28-.37-2.16-2.38-2.52-8.07-.85-13.45,3.32-17.35,1-23.65-1.81-4.87-5.05-4.5-10.36-10.33-3.85-4.22-8-10.86-9.93-21.59"/><ellipse class="cls-1" cx="601.81" cy="287.78" rx="56.41" ry="19.43"/><path class="cls-9" d="M566.74,239a53,53,0,0,0,2.87,16.71,52.24,52.24,0,0,0,2.63,6.3h0c.57,2,1.07,3.55,1.1,3.66.93,2.82-5.74,15.63-2.42,19.58a3,3,0,0,0,2.59,1.14c2.13-.4,2.7-4.72,3.57-4.6s.29,4.83,2.17,5.59a2.54,2.54,0,0,0,2.5-.75c1.49-1.51.55-4.36,1-4.48s1.17,3.6,3.37,4.27a3.55,3.55,0,0,0,3.13-.79c3.26-2.87-3.72-10.55-1.79-21,.6-3.22,2-4,3.62-6.69a21,21,0,0,0,1.72-3.87,33.77,33.77,0,0,0,1.88-10.82"/><path class="cls-9" d="M547.44,222.48a32.94,32.94,0,0,0,6.32,14.14c16.18,20.59,54,14.55,72.69,7.69,7.62-2.79,15-5.49,21.52-12.61,8.08-8.78,11.5-20.55,11.76-32.81C626.8,219.26,586.1,227.22,547.44,222.48Z"/><ellipse class="cls-10" cx="603.1" cy="209.02" rx="57.47" ry="12.66" transform="translate(-30.08 128.36) rotate(-11.86)"/><ellipse class="cls-11" cx="597.64" cy="202.36" rx="1.14" ry="0.5" transform="translate(-33.06 183.89) rotate(-17.03)"/><ellipse class="cls-11" cx="606.97" cy="212.24" rx="1.14" ry="0.5" transform="translate(-35.54 187.06) rotate(-17.03)"/><ellipse class="cls-11" cx="613.31" cy="211.05" rx="1.14" ry="0.5" transform="translate(-34.92 188.86) rotate(-17.03)"/><ellipse class="cls-11" cx="618.82" cy="208.09" rx="1.14" ry="0.5" transform="translate(-33.81 190.35) rotate(-17.03)"/><ellipse class="cls-11" cx="603.3" cy="200.62" rx="1.14" ry="0.5" transform="translate(-32.3 185.48) rotate(-17.03)"/><ellipse class="cls-11" cx="595.3" cy="214.32" rx="1.14" ry="0.5" transform="translate(-36.66 183.74) rotate(-17.03)"/><ellipse class="cls-11" cx="601.81" cy="213.3" rx="1.14" ry="0.5" transform="translate(-36.08 185.6) rotate(-17.03)"/><ellipse class="cls-11" cx="587.06" cy="214.36" rx="1.14" ry="0.5" transform="translate(-37.04 181.32) rotate(-17.03)"/><ellipse class="cls-11" cx="590.9" cy="204.2" rx="1.14" ry="0.5" transform="translate(-33.89 182) rotate(-17.03)"/><ellipse class="cls-11" cx="614.55" cy="199.42" rx="1.14" ry="0.5" transform="matrix(0.96, -0.29, 0.29, 0.96, -31.46, 188.72)"/><ellipse class="cls-11" cx="620.21" cy="200.26" rx="1.14" ry="0.5" transform="matrix(0.96, -0.29, 0.29, 0.96, -31.45, 190.41)"/><ellipse class="cls-11" cx="609.48" cy="199.73" rx="1.14" ry="0.5" transform="translate(-31.77 187.25) rotate(-17.03)"/><ellipse class="cls-11" cx="580.78" cy="209.76" rx="1.14" ry="0.5" transform="translate(-35.97 179.28) rotate(-17.03)"/><ellipse class="cls-11" cx="586.58" cy="206.41" rx="1.14" ry="0.5" transform="translate(-34.73 180.83) rotate(-17.03)"/><ellipse class="cls-11" cx="581.78" cy="213.04" rx="1.14" ry="0.5" transform="translate(-36.88 179.72) rotate(-17.03)"/><ellipse class="cls-11" cx="624.18" cy="202.24" rx="1.14" ry="0.5" transform="translate(-31.86 191.66) rotate(-17.03)"/><ellipse class="cls-11" cx="623.27" cy="205.06" rx="1.14" ry="0.5" transform="translate(-32.73 191.52) rotate(-17.03)"/><ellipse class="cls-12" cx="602.04" cy="207.25" rx="16.62" ry="3.79" transform="translate(-29.74 128.11) rotate(-11.86)"/><path class="cls-9" d="M611.42,235.92a61.16,61.16,0,0,0-.62,9c.08,15.48,6.49,19.92,3.4,29.64-1.2,3.78-3.73,8.11-1.91,10.11a3.3,3.3,0,0,0,3.79.64c2.06-1.22,1.41-5.66,1.91-5.69s.35,5.6,3.15,7a2.85,2.85,0,0,0,2.53,0c2.36-1.33,1.39-6.91,1.9-6.95.28,0,.32,1.58,1.26,3.16,1.17,1.95,3.61,3.68,5.06,3.17,1.16-.41,1.87-2.32,1.91-7.59.07-12.46-4-15.84-2.18-21.78,1.42-4.6,4.45-4.43,9.07-10.1,3.35-4.11,6.86-10.45,8.07-20.47"/><path class="cls-9" d="M659.4,199.5c.66-15.37-3.63-31.65-10-43.92a80.26,80.26,0,0,0-18.43-23.2L577.8,133A135.28,135.28,0,0,0,558,166.7c-5.81,14.35-14.56,36-11.41,53.9C585.16,226.2,626,219.14,659.4,199.5Z"/><circle class="cls-9" cx="591.31" cy="144.54" r="41.24" transform="translate(302.03 680.13) rotate(-75.36)"/><path class="cls-13" d="M582,134.81c-7.13-6.45-24.35,2.13-34.11,7-10.92,5.44-21.06,10.49-30.23,21.42-16.64,19.82-20,46.92-16.14,48.59,2.89,1.25,7-12.79,22.61-28.2,26.63-26.34,59.59-23.85,61-39.66C585.42,140.72,584.39,137,582,134.81Z"/><path class="cls-14" d="M501.32,211.53a96.26,96.26,0,0,1,35.58-51.7,101,101,0,0,1,30.5-15"/><path class="cls-15" d="M547.08,218.45a5,5,0,0,0,.13,2.87,9.32,9.32,0,0,0,1.82,3.31c3.49,4.66,24.56,2.13,24.64,2.12h0c6-.23,12.38-.69,19.14-1.49a239.82,239.82,0,0,0,24.48-4.2l5.79-1.93s19.36-6.42,32.35-14.57a7.32,7.32,0,0,0,3.26-3.78c.28-.87.57-2.5,0-3.25-1.93-2.74-16,5.68-29,9.85a232.9,232.9,0,0,1-34.39,8.16C572.05,219.05,548.39,214,547.08,218.45Z"/><ellipse class="cls-16" cx="566.25" cy="126.23" rx="5.2" ry="4.3" transform="translate(297.08 640.15) rotate(-74.92)"/><ellipse class="cls-16" cx="596.84" cy="126.95" rx="5.2" ry="4.83" transform="translate(392.85 702.03) rotate(-82.48)"/><path class="cls-17" d="M787.92,21.83c-.5-.16-1.06,3.27-3.69,5.22-3.42,2.52-8.43,1.14-8.49,1.66s4.56.31,6.67,3.17c1.86,2.52.85,6.05,1.53,6.16s.88-3.87,3.46-5.33c2.91-1.63,7.19.91,7.37.46s-5.31-1.87-6.72-5.81C787.09,24.7,788.39,22,787.92,21.83Z"/><path class="cls-18" d="M45.44,116.61c.47.34-1,2.74-1.19,7s1.12,5.93.07,8.17c-.71,1.48-2.33,3-3.93,2.4s-2.55-2.93-2.57-4.68a4.58,4.58,0,0,1,0-.59c.13-1.2.8-3,4.07-8.07C44.55,116.78,45.2,116.44,45.44,116.61Z"/></g><g id="name"><path class="cls-19" d="M862.45,196.71c10.7,2.95,21.76,2.83,32.74,1.9,5.06-.43,10.1-1,15.15-1.52,2.73-.27,5.75-1.31,8.57-1.19a152.57,152.57,0,0,0-.19-22.2c-.21-2.48-.46-4.57-.74-6.51a177.92,177.92,0,0,0-3.46-17.59c-3.32-13.14.48-36.06-3.07-54.56a68.27,68.27,0,0,0-5.1-15.76l-9.53-15.73-72.43-.95c-4,2.48-15.39,10.32-19.06,24.3-2.35,9-.78,17.64,0,21.92a62.39,62.39,0,0,0,3.81,12.87,192.4,192.4,0,0,0-4.4,65.25c5.21,5,8.31,6.68,10.23,7.22.47.13,3.49,1,7.56,2.36l.11,0,2.32.2c3.33.27,6.6.42,9.9.88,7.12,1,14.19,1.73,21-1.06Z"/><path class="cls-20" d="M810.91,113.78l2,2h30.71l2-2.61"/><path class="cls-20" d="M858.54,113.78l2,2h30.71l2-2.61"/><path class="cls-20" d="M849.07,136.06a22.27,22.27,0,0,1-22.8,8.44"/><path class="cls-20" d="M871.71,146.28a22.27,22.27,0,0,1-22.09-10.15"/><path class="cls-20" d="M849.07,150.41a22.27,22.27,0,0,1-22.8,8.44"/><path class="cls-20" d="M871.71,160.63a22.27,22.27,0,0,1-22.09-10.15"/><path class="cls-20" d="M849.07,163.08a22.27,22.27,0,0,1-22.8,8.44"/><path class="cls-20" d="M871.71,173.3a22.27,22.27,0,0,1-22.09-10.15"/><path class="cls-19" d="M805,187.65c1.69,14.58,3.19,27.49,8.55,41.43,1.5,3.89,3.61,8.67,3.67,15.54.06,7.64-3.93,10.41-4.89,21.46-.43,4.93-.35,9,2.26,11.73,4.73,5,16.52,3.67,23-2.09,6.14-5.44,7.09-14.37,8.15-24.36.19-1.83.44-4.72.69-10.52.28-6.43.1-9.46.69-14.72.67-6,2-15.24,8.53-28.77"/><path class="cls-19" d="M857.42,196.52c6.55-.69,10.47,16.86,21,22.77A28.19,28.19,0,0,1,887,227a22,22,0,0,1,1.59,3c4,9.39-5.9,23.4-1.65,36.73.49,1.54,2.62,8.23,8.4,10.5,5.13,2,11.48-.12,15.33-3.55,0,0,10.46-9.26,4.67-35.86,0-.06-.06-.28-.12-.61a45.85,45.85,0,0,1-.86-7.34c0-.89,0-1.83,0-2.87a41.74,41.74,0,0,1,1.8-10.19c1.19-3.86,1.59-8.56,2.4-18,.58-6.82.17-15.08,0-24.57"/><polygon class="cls-21" points="712.72 111.65 720.75 98.91 726.26 105.05 712.72 111.65"/><polygon class="cls-21" points="723.53 125.51 724.9 110.51 732.6 113.48 723.53 125.51"/><polygon class="cls-21" points="713.64 119.09 722.71 107.05 727.69 113.63 713.64 119.09"/><path class="cls-19" d="M834.69,66.93c-18-8.38-30-7.68-33-7.44a66.1,66.1,0,0,0-24.43,7.3c-11.92,6.2-9.68,9.5-18,12.09-10.55,3.27-17.88-.83-27.55,5.36a26.34,26.34,0,0,0-4.7,3.84c-4.58,4.77-10.24,14.45-6.91,21.53,3.58,7.62,16.56,10.12,25.37,6.81,10.36-3.89,9.58-14.19,21-16.94.41-.1.83-.21,1.37-.31a44.87,44.87,0,0,1,14.82,0c13,1.49,18-3,23.81,1.56a12.82,12.82,0,0,1,2.32,2.32"/><polygon class="cls-21" points="983.21 153.58 975.35 140.72 983.3 138.51 983.21 153.58"/><polygon class="cls-21" points="993.79 146.03 980.96 138.15 987.03 132.57 993.79 146.03"/><polygon class="cls-21" points="998.66 135.79 984.73 130.06 989.83 123.58 998.66 135.79"/><path class="cls-19" d="M906,101.27a14.56,14.56,0,0,1,8.1-2.31c6.1.24,7.38,4.9,15.12,9.87,9.48,6.09,16.1,5.31,25.08,12.08a18.59,18.59,0,0,1,3.06,3c5.75,6.86,3.58,11.07,9.86,15.76,4.41,3.3,12.11,6.16,18,3.1,9.28-4.86,8.06-21.55,4.56-27.61a39.61,39.61,0,0,0-8.17-9l-.24-.17a14.5,14.5,0,0,0-3.59-2.39,15,15,0,0,0-2-.79c-7.42-2.31-21.32-23.15-21.32-23.15A58.71,58.71,0,0,0,892.2,64.4"/><circle class="cls-19" cx="883.94" cy="11.98" r="11.48"/><circle class="cls-22" cx="883.94" cy="11.98" r="7.55"/><circle class="cls-19" cx="832.8" cy="11.98" r="11.48"/><circle class="cls-22" cx="832.8" cy="11.98" r="7.55"/><circle class="cls-19" cx="858.06" cy="45.69" r="40.34"/><circle class="cls-12" cx="841.86" cy="47.92" r="8.8"/><circle class="cls-23" cx="841.86" cy="47.92" r="5.74"/><circle class="cls-23" cx="831.67" cy="33.2" r="4.57"/><circle class="cls-23" cx="864.19" cy="33.2" r="4.57"/><rect class="cls-24" x="813.42" y="116.32" width="29.52" height="1.16"/><rect class="cls-24" x="860.88" y="116.32" width="29.52" height="1.16"/><path class="cls-25" d="M849.07,137.22a22.32,22.32,0,0,1-22.8,8.44"/><path class="cls-25" d="M849.16,151.92a22.29,22.29,0,0,1-23,8"/><path class="cls-25" d="M849.07,163.84a22.27,22.27,0,0,1-22.8,8.44"/><path class="cls-25" d="M871.13,146.86A22.27,22.27,0,0,1,849,136.71"/><path class="cls-25" d="M871.13,161.33A22.27,22.27,0,0,1,849,151.18"/><path class="cls-25" d="M871.13,174.06A22.27,22.27,0,0,1,849,163.91"/><ellipse class="cls-1" cx="861.76" cy="279.59" rx="76.41" ry="16.39"/><ellipse class="cls-1" cx="376.65" cy="293.05" rx="67.19" ry="21.91"/><path class="cls-26" d="M358.87,282.65a48.08,48.08,0,0,1-15.69-2.18c-6.95-2.19-9.79-4.9-13.5-6.77-16.39-8.23-28,11-47.6,4.72-10.34-3.29-15.11-10.36-25.33-9.75-3.59.22-8,1.5-9.32-.58a3.09,3.09,0,0,1,.28-3.53c1.53-1.56,5.3,0,5.43-.41s-4.84-1.58-5.42-4.38a2.61,2.61,0,0,1,.56-2.26c1.69-1.8,6.39.33,6.54-.12.08-.25-1.32-.64-2.5-1.84-1.46-1.49-2.44-4.05-1.66-5.23.61-.94,2.45-1.15,7.1,0,12,3,13.88,7.9,18.69,6.87,3.13-.67,5.64-4.36,10.67-11.76,3.11-4.57,3.53-6.12,5.63-9.47,3-4.8,7.7-12.27,16.34-16.57,12.08-6,24.07-2.08,25.26-1.66a33,33,0,0,1,13.59,9.12"/><path class="cls-26" d="M356.37,296.17a112.51,112.51,0,0,0-15.81-.85,116.39,116.39,0,0,0-16.68,1.55c-22,3.31-33,5-44.38,1.54s-16.64-9-26-7.59c-3.56.52-7.83,2.16-9.35.2a3.1,3.1,0,0,1,0-3.54c1.4-1.68,5.28-.42,5.38-.86s-5-1.17-5.77-3.92a2.64,2.64,0,0,1,.38-2.29c1.54-2,6.39-.22,6.51-.68.06-.25-1.37-.52-2.65-1.62-1.57-1.36-2.75-3.83-2.08-5.07.54-1,2.35-1.35,7.08-.58,12.16,2,14.48,6.71,19.19,5.28,3.06-.93,5.26-4.82,9.67-12.62,2.72-4.81,3-6.39,4.84-9.9,2.61-5.05,6.66-12.88,14.92-17.89,10.94-6.65,22.53-4.34,25-3.78a34.23,34.23,0,0,1,8.82,3.3"/><path class="cls-27" d="M328.65,242.17a23.74,23.74,0,0,0-3.82-1.1,21.34,21.34,0,0,0-7.78-.23,20.52,20.52,0,0,0-7.94,3.09"/><path class="cls-27" d="M330.4,222.33a17.74,17.74,0,0,0-3.15-1.36,15.73,15.73,0,0,0-6.61-.77,16.42,16.42,0,0,0-7,2.53"/><ellipse class="cls-12" cx="310.49" cy="224.87" rx="1.38" ry="0.89" transform="translate(-71.96 198.34) rotate(-31.94)"/><ellipse class="cls-12" cx="304.78" cy="245.97" rx="1.38" ry="0.89" transform="translate(-83.98 198.51) rotate(-31.94)"/><path class="cls-28" d="M344.9,222.23q2.21-1.08,4.56-2.09c28.74-12.28,67.28-10.73,90.34,8.06,10.83,8.83,18.81,23.75,14.9,38-3.84,14-17,21.73-21,24-22.3,12.61-53.09,14-80.1,4.5-3.08-18.63-6.25-35.57-9.76-54.27A46.2,46.2,0,0,1,344.9,222.23Z"/><ellipse class="cls-12" cx="442.05" cy="241.68" rx="6.05" ry="7.4" transform="translate(-53.48 150.76) rotate(-18.27)"/><ellipse class="cls-29" cx="442.05" cy="241.68" rx="3.94" ry="4.83" transform="translate(-53.48 150.76) rotate(-18.27)"/><ellipse class="cls-12" cx="412.64" cy="240.64" rx="6.8" ry="7.41" transform="translate(-12.96 23.75) rotate(-3.25)"/><ellipse class="cls-29" cx="412.64" cy="240.64" rx="4.43" ry="4.83" transform="translate(-12.96 23.75) rotate(-3.25)"/><ellipse class="cls-29" cx="439.1" cy="256.82" rx="0.93" ry="1.57" transform="translate(-67.18 207.38) rotate(-24.75)"/><ellipse class="cls-29" cx="430.79" cy="256.5" rx="1.47" ry="0.98" transform="translate(-8.99 497.26) rotate(-59.47)"/><path class="cls-30" d="M451.06,266.48c.36-2-2.94-4.43-6.09-5.24-2.79-.72-3.72.28-8.07.45-6.51.26-7.7-1.84-12.3-1-3.87.67-8,3-7.75,4.86.32,2.09,6.2,3.09,12.36,4.14,8.11,1.38,12.3.74,13.4.56C445.22,269.77,450.64,268.85,451.06,266.48Z"/><path class="cls-31" d="M348.41,219.72c-.22-.59.45-1,7.48-8,5-5,5.89-6,7.39-5.87,3.75.35,4.21,7.59,7.8,7.76,2.44.12,4.88-3,8.24-7.32,2.6-3.34,2.73-4.43,3.95-4.63,3.78-.62,6.09,9.42,10.58,9.48,5,.06,6.33-12.26,12.24-12.48,4.88-.19,11,8,11.06,8.11l.1.15c1.29,1.91,13.69,20.3,11.17,22.79-1.61,1.58-7.36-4.67-18.68-9-9.8-3.75-18.05-3.85-25.87-4C363.28,216.46,349.39,222.36,348.41,219.72Z"/><path class="cls-30" d="M446.33,265.06a68.89,68.89,0,0,1-22.44-.68"/><path class="cls-32" d="M369.47,276.33c-5.5-.62-7.05-2.15-7.5-3.37-1.25-3.36,4.88-7.14,3.51-10.5-1.19-2.94-6.76-2.29-7.27-4.63-.59-2.69,6.39-5.26,5.76-7.82-.54-2.24-6.19-1.68-7.11-4.07-.56-1.47.64-4.1,7.46-9.18"/><path class="cls-33" d="M540,101.94a16.37,16.37,0,0,0-3.86-11.66l-1.76,1.77a11,11,0,0,0,4.11,2.19,6.7,6.7,0,0,0,4.81-.12c2.77-1.52,3-5.93,2.62-8.64l-2.33.63a7.63,7.63,0,0,0,13.91-1.82c.47-1.54-1.94-2.2-2.41-.66a5.18,5.18,0,0,1-9.34,1.22c-.59-1-2.49-.68-2.33.63a12.11,12.11,0,0,1-.06,3.8,4.2,4.2,0,0,1-1.1,2.54c-.8.6-2.23.25-3.11,0a8.23,8.23,0,0,1-3-1.55,1.25,1.25,0,0,0-1.76,1.77,13.87,13.87,0,0,1,3.12,9.89c-.11,1.61,2.39,1.6,2.5,0Z"/><rect class="cls-12" x="221.21" y="145.06" width="124.05" height="47.88" rx="19.32"/><path class="cls-12" d="M270.18,193.63a19.2,19.2,0,0,0,4.35,9.79c6.4,7.45,17.08,7.46,17.41,6.53.23-.65-4.67-1.47-6.53-5.44-1.77-3.79.16-8.47,2.18-12"/><path class="cls-34" d="M246.17,160.92c.45,1.59.77,3.1-.33,4.49a21.21,21.21,0,0,0-2.35,3.45,18.66,18.66,0,0,0-1.45,3.9,19.64,19.64,0,0,1-1.32,4.17h1.08A29.49,29.49,0,0,1,236.67,163c0-.12-.14-.69,0-.77a3.55,3.55,0,0,1,.54.19q.94.33,1.86.72a29.87,29.87,0,0,1,3.33,1.71c.85.5,2.7,1.33,2.86,2.43s-1.21,2.45-2,3.07c-1.22.92-2.79.64-4.22.57l-4.89-.24c-.81,0-.81,1.21,0,1.25l5.54.27c1.47.07,2.91.16,4.17-.74a7.12,7.12,0,0,0,2.52-3.1c.5-1.38-.2-2.47-1.3-3.28a26.6,26.6,0,0,0-4-2.41q-.92-.45-1.86-.84a11.29,11.29,0,0,0-2.38-.86c-1.51-.25-1.36,1.49-1.26,2.45a32.25,32.25,0,0,0,.82,4.49,30.91,30.91,0,0,0,4.44,9.63.63.63,0,0,0,1.08,0,19.94,19.94,0,0,0,1.41-4.33,17.29,17.29,0,0,1,1.77-4.5,16,16,0,0,1,1.38-2,7.67,7.67,0,0,0,1.21-1.78,6.76,6.76,0,0,0-.19-4.37.63.63,0,0,0-1.21.33Z"/><path class="cls-35" d="M259.41,174.8a19,19,0,0,1-.38-2.91c0-.42,0-.83,0-1.25s-.08-1.31.78-1c1.38.52,1.38,2.8,1.29,4-.2,2.37-.58,6.18,2.59,6.84a2.81,2.81,0,0,0,2.82-1.23,6.89,6.89,0,0,0,.86-4.14,40.44,40.44,0,0,0-1.26-10.15c-.57-2.15-1.67-4.66-4-5.37a1.67,1.67,0,0,0-2.23,1.17,3.08,3.08,0,0,0,.95,3c2,1.86,4.68,1.1,6.53-.47,1.4-1.18,3.95-4.45,1.11-5.64a1.61,1.61,0,0,0-2.23,1.31,8,8,0,0,0,.85,4.34,19.13,19.13,0,0,0,2.95,4.25c1,1.26,2.11,3.35.55,4.67-.61.52.28,1.4.89.89a3.87,3.87,0,0,0,.69-4.59c-1-2.23-3.14-3.71-4.08-6a10.93,10.93,0,0,1-.48-1.57c-.08-.41-.39-1.35-.15-1.75.59-1,1.07.2,1,.65a2.27,2.27,0,0,1-.32.75,6.7,6.7,0,0,1-1.3,1.51,5,5,0,0,1-3.16,1.57c-1,0-2.69-.8-2.66-2,0-2,2.18.07,2.61.69a9.51,9.51,0,0,1,1.21,2.84,37,37,0,0,1,1.2,8.12,21.16,21.16,0,0,1,0,3.56c-.16,1.46-1.44,3.39-3,1.93-1.84-1.74-.44-4.77-.74-6.95-.22-1.52-1.51-4.1-3.49-3.48-1,.32-1.05,1.46-1.06,2.34a20.56,20.56,0,0,0,.43,4.5c.16.78,1.36.45,1.21-.34Z"/><path class="cls-36" d="M285.06,174.7c-1.66-.61-3.54-1.63-3.88-3.55s1.5-3.32,3.11-3.89,4-.71,5.13.81c.57.78.62,2.34-.67,2.42s-1-1.28-.83-2.06a7.83,7.83,0,0,1,2.42-3.79,4.9,4.9,0,0,1,2.6-1.29,1.77,1.77,0,0,1,2.14,1.55c0,1.43-1.25,2.81-1.8,4.07a21.63,21.63,0,0,0-1.28,5.08.63.63,0,0,0,.6.79l5.56.27a.63.63,0,0,0,.63-.62c0-1.13-.48-2.46-.17-3.56.24-.86,1.06-1.5,1.77-.6.26.33.35.81.6,1.16.63.92,2.27,1.45,2.88.22.35-.72-.73-1.36-1.08-.64s-1.08-.91-1.12-1a3.52,3.52,0,0,0-.73-1.06,1.86,1.86,0,0,0-2.09-.24c-2.26,1.13-1.26,3.77-1.31,5.71l.62-.63-5.56-.27.6.79a30.38,30.38,0,0,1,.74-3.56,17.49,17.49,0,0,1,1.55-3.34c.8-1.49,1.36-3.38-.13-4.66-3.18-2.73-7.4,1.82-8.43,4.62-.51,1.37-.84,3.49.88,4.15a2.42,2.42,0,0,0,3.2-1.77,3.47,3.47,0,0,0-2.46-3.85,7.3,7.3,0,0,0-6,.71c-1.78,1-3.09,2.84-2.57,5,.55,2.28,2.66,3.5,4.71,4.25.76.28,1.08-.93.33-1.2Z"/><path class="cls-37" d="M317.68,170.31a3.23,3.23,0,0,1,.86-5.79,1.43,1.43,0,0,1,1.85.56,5,5,0,0,1,.85,1.49c.16.52.18,1.37-.41,1.67-1.1.57-1.36-1.11-1-1.77a5,5,0,0,1,3.66-1.93c1.38-.09,2.26,1.46,2.7,2.56a14.63,14.63,0,0,1,.79,3.7c0,.16.16.72.07.86-.18.31-.73.16-1,.16-.86,0-1.72,0-2.58,0-3,0-5.91,0-8.86.17-.95,0-1.92.13-2.34,1.12a2.33,2.33,0,0,0,.67,2.56,4.42,4.42,0,0,0,2.93,1c1.53.07,3.07,0,4.6.05,2.85,0,5.75.14,8.6-.05a2.49,2.49,0,0,0,2.45-1.8,19.91,19.91,0,0,0,1-4.16,21.51,21.51,0,0,0-.63-8.85.62.62,0,0,0-1.2.34,20.12,20.12,0,0,1,.3,10,13,13,0,0,1-.7,2.38c-.46,1.06-1.43.89-2.43.91-1.75,0-3.5,0-5.24,0l-5.43,0a10.05,10.05,0,0,1-2.39-.15c-.88-.22-2.3-1.56-.76-2a12.06,12.06,0,0,1,2.76-.12c.92,0,1.85-.06,2.77-.07,1.78,0,3.57,0,5.35,0,1.05,0,3,.49,3.33-1a5.76,5.76,0,0,0-.12-1.89,17.69,17.69,0,0,0-.4-2.27c-.59-2.32-2.21-5.19-5-4.5a6.51,6.51,0,0,0-3.72,2.05,2.66,2.66,0,0,0-.13,3.25,2,2,0,0,0,2.68.53,2.63,2.63,0,0,0,.94-2.87c-.31-1.19-1.35-2.93-2.64-3.22a4.26,4.26,0,0,0-3.57,1.33,4.42,4.42,0,0,0,.77,6.9c.68.43,1.31-.65.63-1.08Z"/></g></g></svg>