<svg xmlns="http://www.w3.org/2000/svg" viewBox="0 0 16 16"><defs><style>.cls-1{fill:#fde596;}.cls-2{fill:#fff;}.cls-3{fill:#ef4237;}</style></defs><title>favicon_3</title><g id="Layer_2" data-name="Layer 2"><g id="name"><path class="cls-1" d="M16,8A8,8,0,0,1,4.43,15.16,8.19,8.19,0,0,1,0,8,8.17,8.17,0,0,1,8,0,8,8,0,0,1,16,8Z"/><circle class="cls-2" cx="4.82" cy="5.85" r="1.37"/><circle class="cls-3" cx="4.82" cy="5.85" r="0.89"/><circle class="cls-2" cx="11.18" cy="5.85" r="1.37"/><circle class="cls-3" cx="11.18" cy="5.85" r="0.89"/><rect class="cls-2" x="5.36" y="7.89" width="5.28" height="1.46" rx="0.73"/><polygon class="cls-3" points="6.97 8.86 7.42 7.89 6.51 7.89 6.97 8.86"/><polygon class="cls-3" points="9.48 8.86 9.94 7.89 9.03 7.89 9.48 8.86"/></g></g></svg>