<svg xmlns="http://www.w3.org/2000/svg" viewBox="0 0 32 32"><defs><style>.cls-1{fill:#3c2415;}</style></defs><title>ig</title><g id="Layer_2" data-name="Layer 2"><g id="logo"><circle class="cls-1" cx="15.87" cy="16.13" r="2.84"/><path class="cls-1" d="M19.42,9.16h-7.1a3.52,3.52,0,0,0-2.51.91,3.51,3.51,0,0,0-.9,2.51v7.1a3.58,3.58,0,0,0,1,2.58,3.66,3.66,0,0,0,2.52.9h7a3.51,3.51,0,0,0,2.51-.9,3.3,3.3,0,0,0,1-2.52V12.65a3.64,3.64,0,0,0-.9-2.52A3.49,3.49,0,0,0,19.42,9.16ZM15.87,20.51a4.39,4.39,0,0,1,0-8.77,4.45,4.45,0,0,1,4.45,4.39A4.4,4.4,0,0,1,15.87,20.51Zm4.58-7.93a1,1,0,1,1,1-1A1,1,0,0,1,20.45,12.58Z"/><path class="cls-1" d="M16,0A16,16,0,1,0,32,16,16,16,0,0,0,16,0Zm8.52,19.77a5.16,5.16,0,0,1-1.43,3.71,5.06,5.06,0,0,1-3.64,1.37H12.36a5.06,5.06,0,0,1-3.64-1.37,4.89,4.89,0,0,1-1.44-3.71V12.62a4.82,4.82,0,0,1,5.08-5.08h7.15A5,5,0,0,1,23.15,9a5,5,0,0,1,1.37,3.64Z"/></g></g></svg>