<svg xmlns="http://www.w3.org/2000/svg" viewBox="0 0 110.05 28.87"><defs><style>.cls-1{fill:#3c2415;}.cls-2{fill:#fde596;}</style></defs><title>browl</title><g id="Layer_2" data-name="Layer 2"><g id="logo"><path class="cls-1" d="M28.87,15.31A14.43,14.43,0,0,1,14.44,29.75,14.59,14.59,0,0,1,8,28.24,14.81,14.81,0,0,1,0,15.31C.07,8.09,6.11.88,14.44.88A14.43,14.43,0,0,1,28.87,15.31Z" transform="translate(0 -0.88)"/><circle class="cls-2" cx="8.7" cy="10.56" r="2.47"/><circle class="cls-1" cx="8.7" cy="10.56" r="1.61"/><circle class="cls-2" cx="20.17" cy="10.56" r="2.47"/><circle class="cls-1" cx="20.17" cy="10.56" r="1.61"/><rect class="cls-2" x="9.67" y="14.24" width="9.54" height="2.63" rx="1.32"/><polygon class="cls-1" points="12.57 15.99 13.39 14.24 11.75 14.24 12.57 15.99"/><polygon class="cls-1" points="17.11 15.99 17.93 14.24 16.29 14.24 17.11 15.99"/><path class="cls-1" d="M46.37,7.56a2,2,0,0,1-.46,1.33,2.33,2.33,0,0,1-1.24.81,7.09,7.09,0,0,1-1.35.21c-.52,0-1.09,0-1.72,0H41l-.86,0V2.08l.59,0h.87c.82,0,1.43,0,1.84,0a4.22,4.22,0,0,1,1.08.17,2.06,2.06,0,0,1,1,.7A1.66,1.66,0,0,1,46,4a2.37,2.37,0,0,1-.19,1,1.27,1.27,0,0,1-.64.65v0a1.54,1.54,0,0,1,.34.17,2.86,2.86,0,0,1,.3.22,1.62,1.62,0,0,1,.46.68A2.23,2.23,0,0,1,46.37,7.56Zm-2.81-.44a2.25,2.25,0,0,0,0-.4,1.05,1.05,0,0,0-.07-.26.27.27,0,0,0-.09-.12.47.47,0,0,0-.17,0h-.12L43,5.52a.28.28,0,0,0,.15,0c.06,0,.09-.08.11-.17A1.07,1.07,0,0,0,43.33,5a2.39,2.39,0,0,0,0-.43,2,2,0,0,0,0-.34A1,1,0,0,0,43.25,4a.34.34,0,0,0-.12-.12l-.14,0h-.13V8h.21a.52.52,0,0,0,.23-.05.26.26,0,0,0,.13-.12,1.28,1.28,0,0,0,.1-.28A2.46,2.46,0,0,0,43.56,7.12Z" transform="translate(0 -0.88)"/><path class="cls-1" d="M52.94,7V8.75c0,.56,0,.95,0,1.16a7,7,0,0,1-.88.07c-.44,0-.78,0-1,0a8.86,8.86,0,0,1-1.14-.09,3.37,3.37,0,0,1-1.14-.3A1.63,1.63,0,0,1,48,9a1.51,1.51,0,0,1-.25-.85,1.82,1.82,0,0,1,.22-.9,1.85,1.85,0,0,1,.82-.63,4.71,4.71,0,0,1,.83-.26l.63-.12a.62.62,0,0,0,0-.29.54.54,0,0,0-.22-.2.8.8,0,0,0-.37-.12,5.06,5.06,0,0,0-.57,0h-.82l.21-1.81h.64A6.61,6.61,0,0,1,51,4a2.77,2.77,0,0,1,1.18.73,2.21,2.21,0,0,1,.58,1A5.33,5.33,0,0,1,52.94,7Zm-2.48.84V7.43c0-.11,0-.21,0-.31a.34.34,0,0,0-.16,0,.29.29,0,0,0-.14.13.76.76,0,0,0-.08.23,1.66,1.66,0,0,0,0,.32,1.39,1.39,0,0,0,0,.32,1.83,1.83,0,0,0,.08.25.36.36,0,0,0,.08.12.24.24,0,0,0,.14.05h.08V8.23C50.46,8.11,50.46,8,50.46,7.86Z" transform="translate(0 -0.88)"/><path class="cls-1" d="M60,6.73a3.36,3.36,0,0,1-.3,1.45,2.7,2.7,0,0,1-.9,1.06,3.74,3.74,0,0,1-1.21.51,7.21,7.21,0,0,1-1.82.19H54.54V8.32c0-.89,0-1.75,0-2.58,0-1.11,0-2.06,0-2.82V1.33h2.65V3.9a3.82,3.82,0,0,1,.68.11,3.27,3.27,0,0,1,.72.28,2.57,2.57,0,0,1,1.08,1A2.9,2.9,0,0,1,60,6.73Zm-2.47-.08a2.87,2.87,0,0,0,0-.39,2.62,2.62,0,0,0-.11-.4,1.36,1.36,0,0,0-.13-.24.18.18,0,0,0-.16-.11H57V8.07a.65.65,0,0,0,.2,0,.28.28,0,0,0,.15-.18,4.2,4.2,0,0,0,.11-.5A3.63,3.63,0,0,0,57.55,6.65Z" transform="translate(0 -0.88)"/><path class="cls-1" d="M67,4c-.48,1.84-1,3.62-1.39,5.34s-.71,2.8-.82,3.23l-2.57-.47.53-2.35c-.08-.3-.28-1.08-.61-2.33S61.48,5.06,61.19,4l2.62-.2c.06.66.12,1.21.17,1.63s.09.77.11,1h.08c0-.37.06-.78.1-1.23s.09-.92.16-1.43Z" transform="translate(0 -0.88)"/><path class="cls-1" d="M78.51,9.53,75.66,10q-.16-.87-.39-1.77a16.65,16.65,0,0,0-.49-1.66l0-.12A.27.27,0,0,0,75,6.32,1.49,1.49,0,0,0,75.12,6a2.9,2.9,0,0,0,.08-.41c0-.11,0-.25,0-.41a3,3,0,0,0,0-.53,2.63,2.63,0,0,0-.09-.44A.36.36,0,0,0,75,4.11a.29.29,0,0,0-.17,0h-.1V9.92H71.86V8.77c0-.49,0-1.5,0-3V3.59c0-.73,0-1.24,0-1.51h1.36q1.29,0,2,.06a5.86,5.86,0,0,1,1.23.23,2.55,2.55,0,0,1,1.25.88,2.06,2.06,0,0,1,.45,1.24A3.31,3.31,0,0,1,78,5.55a1.77,1.77,0,0,1-.48.75v0q.18.53.45,1.44T78.51,9.53Z" transform="translate(0 -0.88)"/><path class="cls-1" d="M85.37,6.89a4.18,4.18,0,0,1-.19,1.28,2.92,2.92,0,0,1-.66,1.1,2.55,2.55,0,0,1-.88.58,3.1,3.1,0,0,1-1.09.2,2.91,2.91,0,0,1-1.1-.21,2.17,2.17,0,0,1-.88-.57,3,3,0,0,1-.66-1.08A4,4,0,0,1,79.7,6.9a3.83,3.83,0,0,1,.19-1.3,3.33,3.33,0,0,1,.61-1,2.26,2.26,0,0,1,.89-.63,3.25,3.25,0,0,1,1.14-.2,3.3,3.3,0,0,1,1.1.19,2.36,2.36,0,0,1,.92.64,2.94,2.94,0,0,1,.61,1A3.91,3.91,0,0,1,85.37,6.89Zm-2.55,0a5.52,5.52,0,0,0,0-.58,3.06,3.06,0,0,0-.07-.48l-.07-.14a.14.14,0,0,0-.12-.06.14.14,0,0,0-.12,0,1,1,0,0,0-.08.15,1.72,1.72,0,0,0-.06.42c0,.2,0,.41,0,.64s0,.39,0,.55a3,3,0,0,0,.07.42c0,.07,0,.14.07.2a.14.14,0,0,0,.26,0l.06-.2a2.53,2.53,0,0,0,.07-.39A5.06,5.06,0,0,0,82.82,6.92Z" transform="translate(0 -0.88)"/><path class="cls-1" d="M92.37,6.73a3.36,3.36,0,0,1-.3,1.45,2.7,2.7,0,0,1-.9,1.06A3.74,3.74,0,0,1,90,9.75a7.21,7.21,0,0,1-1.82.19H86.89V1.33h2.65V3.9a3.82,3.82,0,0,1,.68.11,3.27,3.27,0,0,1,.72.28,2.57,2.57,0,0,1,1.08,1A2.9,2.9,0,0,1,92.37,6.73Zm-2.48-.08a2.77,2.77,0,0,0,0-.39,2.62,2.62,0,0,0-.11-.4,1.36,1.36,0,0,0-.13-.24.18.18,0,0,0-.16-.11h-.07V8.07a.65.65,0,0,0,.2,0,.28.28,0,0,0,.15-.18,4.2,4.2,0,0,0,.11-.5A3.86,3.86,0,0,0,89.89,6.65Z" transform="translate(0 -0.88)"/><path class="cls-1" d="M99.45,6.89a4.18,4.18,0,0,1-.19,1.28,2.92,2.92,0,0,1-.66,1.1,2.55,2.55,0,0,1-.88.58,3.11,3.11,0,0,1-1.1.2,3,3,0,0,1-1.1-.21,2.2,2.2,0,0,1-.87-.57A3,3,0,0,1,94,8.19a3.72,3.72,0,0,1-.22-1.29A3.82,3.82,0,0,1,94,5.6a3.3,3.3,0,0,1,.6-1,2.34,2.34,0,0,1,.89-.63,3.35,3.35,0,0,1,1.15-.2,3.3,3.3,0,0,1,1.1.19,2.44,2.44,0,0,1,.92.64,3.11,3.11,0,0,1,.61,1A3.91,3.91,0,0,1,99.45,6.89Zm-2.55,0c0-.2,0-.39,0-.58s0-.34-.07-.48a1,1,0,0,0-.08-.14.12.12,0,0,0-.12-.06.17.17,0,0,0-.12,0,1.07,1.07,0,0,0-.07.15,2.24,2.24,0,0,0-.07.42c0,.2,0,.41,0,.64s0,.39,0,.55a2,2,0,0,0,.07.42,1.18,1.18,0,0,0,.07.2.14.14,0,0,0,.12.09.13.13,0,0,0,.13-.09,1.59,1.59,0,0,0,.07-.2,2.53,2.53,0,0,0,.07-.39C96.89,7.34,96.9,7.14,96.9,6.92Z" transform="translate(0 -0.88)"/><path class="cls-1" d="M105.18,8.14,105,10h-.89a3.45,3.45,0,0,1-2-.52,2,2,0,0,1-.73-1.73v-2h-.62V3.89h.62V2.15h2.63V3.89h1.16V5.77h-1.16v1.4a1.22,1.22,0,0,0,.19.76c.13.15.43.22.9.22h.15Z" transform="translate(0 -0.88)"/><path class="cls-1" d="M49.1,18.24c-.27,1.27-.57,2.72-.9,4.33s-.55,2.74-.67,3.35H44.9c0-.33-.06-.84-.13-1.53s-.14-1.29-.22-1.81h-.07c-.07.53-.15,1.13-.22,1.82s-.11,1.19-.13,1.52H41.49c-.09-.45-.29-1.44-.61-3s-.67-3.09-1-4.71L42.7,18c0,.29.06.86.11,1.73a19.48,19.48,0,0,0,.21,2h.07c.07-.59.13-1.26.19-2s.1-1.22.12-1.44h2.26c0,.36.05.8.1,1.32s.12,1.24.2,2.12h.09c.07-.47.14-1.09.2-1.88s.09-1.39.11-1.81Z" transform="translate(0 -0.88)"/><path class="cls-1" d="M56,22.89a4.18,4.18,0,0,1-.2,1.28,3,3,0,0,1-.65,1.1,2.69,2.69,0,0,1-.89.58,3.1,3.1,0,0,1-1.09.2,3,3,0,0,1-1.1-.21,2.2,2.2,0,0,1-.87-.57,2.92,2.92,0,0,1-.67-1.08,4,4,0,0,1-.21-1.29,3.83,3.83,0,0,1,.19-1.3,3.33,3.33,0,0,1,.61-1,2.26,2.26,0,0,1,.89-.63,3.25,3.25,0,0,1,1.14-.2,3.3,3.3,0,0,1,1.1.19,2.47,2.47,0,0,1,.93.64,2.92,2.92,0,0,1,.6,1A3.9,3.9,0,0,1,56,22.89Zm-2.55,0a5.49,5.49,0,0,0,0-.58,3.06,3.06,0,0,0-.07-.48.91.91,0,0,0-.07-.14.14.14,0,0,0-.12-.06.14.14,0,0,0-.12.05,1,1,0,0,0-.08.15,1.72,1.72,0,0,0-.06.42c0,.2,0,.41,0,.64a4.7,4.7,0,0,0,0,.55,1.53,1.53,0,0,0,.07.42,1.18,1.18,0,0,0,.07.2.12.12,0,0,0,.12.09.14.14,0,0,0,.13-.09.76.76,0,0,0,.06-.2,2.53,2.53,0,0,0,.07-.39A4.85,4.85,0,0,0,53.49,22.92Z" transform="translate(0 -0.88)"/><path class="cls-1" d="M63.18,25.92H60.62c0-.14,0-.37,0-.67s0-.72,0-1.24V23c0-.34,0-.6,0-.78a3.12,3.12,0,0,0,0-.55.14.14,0,0,0-.15-.13.45.45,0,0,0-.16,0,.25.25,0,0,0-.13.09c0,.08,0,.35,0,.81s0,.82,0,1.05c0,.4,0,.87,0,1.39s0,.85,0,1H57.55V24.77c0-.53,0-1.15,0-1.86s0-1.28,0-1.74V19.89H60v.32h0a3.56,3.56,0,0,1,1.68-.48,1.3,1.3,0,0,1,1.08.48,1.87,1.87,0,0,1,.38,1.2v4.5Z" transform="translate(0 -0.88)"/><path class="cls-1" d="M70.15,25.92H68.92a7.39,7.39,0,0,1-1.9-.21,3.64,3.64,0,0,1-1.16-.5,2.67,2.67,0,0,1-.9-1.06,3.3,3.3,0,0,1-.28-1.42A2.77,2.77,0,0,1,65,21.31a2.7,2.7,0,0,1,1.11-1,3.57,3.57,0,0,1,.67-.29,3.35,3.35,0,0,1,.69-.13V17.33h2.64c0,.26,0,.78,0,1.58v5.36C70.16,25.16,70.16,25.71,70.15,25.92Zm-2.49-3.07V21.69a.29.29,0,0,0-.21.08,1.13,1.13,0,0,0-.13.27,1.79,1.79,0,0,0-.13.41,2,2,0,0,0,0,.41,5.47,5.47,0,0,0,0,.67,4.08,4.08,0,0,0,.11.49.47.47,0,0,0,.14.14.25.25,0,0,0,.16.06l0,0h0v-1.4Z" transform="translate(0 -0.88)"/><path class="cls-1" d="M76.91,23.12H74.35a.89.89,0,0,0,.13.52.93.93,0,0,0,.39.33,1.78,1.78,0,0,0,.55.18,2.69,2.69,0,0,0,.53.06h.45l.33,0L76.47,26l-.39,0h-.49a6.11,6.11,0,0,1-1.65-.21,3.15,3.15,0,0,1-1.31-.7,2.82,2.82,0,0,1-.72-1.05,3.59,3.59,0,0,1-.22-1.21,4.3,4.3,0,0,1,.17-1.23,2.65,2.65,0,0,1,.6-1,2.24,2.24,0,0,1,.88-.63,2.6,2.6,0,0,1,1-.21,3,3,0,0,1,1.06.19,2.17,2.17,0,0,1,.8.57,2.53,2.53,0,0,1,.54,1.13A6.68,6.68,0,0,1,76.91,23.12Zm-2.3-.89a3.24,3.24,0,0,0-.06-.73q-.06-.24-.21-.24t-.21.21a2.91,2.91,0,0,0-.08.76Z" transform="translate(0 -0.88)"/><path class="cls-1" d="M83.32,21.88c-.4.16-.73.31-1,.43s-.66.34-1.27.66v.51c0,.14,0,.36,0,.65s0,.71,0,1v.75H78.42v-6H81l0,.86h0a6.46,6.46,0,0,1,.89-.74c.29-.21.49-.34.61-.41Z" transform="translate(0 -0.88)"/><path class="cls-1" d="M89.37,25.92h-5V20.06q0-1,0-2h2.87v5.47h2.13Z" transform="translate(0 -0.88)"/><path class="cls-1" d="M95.84,23c0,.6,0,1.17,0,1.73v1.16A7,7,0,0,1,95,26c-.45,0-.79,0-1,0a9,9,0,0,1-1.14-.09,3.37,3.37,0,0,1-1.14-.3,1.63,1.63,0,0,1-.75-.63,1.51,1.51,0,0,1-.25-.85,1.72,1.72,0,0,1,.23-.9,1.74,1.74,0,0,1,.82-.63,4.6,4.6,0,0,1,.82-.26l.63-.12a.62.62,0,0,0,0-.29.54.54,0,0,0-.22-.2.8.8,0,0,0-.37-.12,5.06,5.06,0,0,0-.57,0h-.82l.21-1.81H92a6.61,6.61,0,0,1,2,.22,2.77,2.77,0,0,1,1.18.73,2.21,2.21,0,0,1,.58,1A5.33,5.33,0,0,1,95.84,23Zm-2.48.84v-.43c0-.11,0-.21,0-.31a.34.34,0,0,0-.16,0,.29.29,0,0,0-.14.13.76.76,0,0,0-.08.23,1.66,1.66,0,0,0,0,.32,1.39,1.39,0,0,0,0,.32,1.83,1.83,0,0,0,.08.25.27.27,0,0,0,.09.12.2.2,0,0,0,.14,0h.07v-.33C93.36,24.11,93.36,24,93.36,23.86Z" transform="translate(0 -0.88)"/><path class="cls-1" d="M103.07,25.92h-2.56c0-.14,0-.37,0-.67s0-.72,0-1.24V23c0-.34,0-.6,0-.78a3.12,3.12,0,0,0,0-.55.14.14,0,0,0-.15-.13.45.45,0,0,0-.16,0,.34.34,0,0,0-.14.09v.81c0,.47,0,.82,0,1.05,0,.4,0,.87,0,1.39v1H97.44V24.77c0-.53,0-1.15,0-1.86s0-1.28,0-1.74V19.89h2.48v.32h0a3.1,3.1,0,0,1,.76-.33,3.2,3.2,0,0,1,.92-.15,1.3,1.3,0,0,1,1.08.48,1.87,1.87,0,0,1,.38,1.2v4.5Z" transform="translate(0 -0.88)"/><path class="cls-1" d="M110,25.92h-1.23a7.39,7.39,0,0,1-1.9-.21,3.64,3.64,0,0,1-1.16-.5,2.67,2.67,0,0,1-.9-1.06,3.3,3.3,0,0,1-.28-1.42,2.77,2.77,0,0,1,.36-1.44,2.7,2.7,0,0,1,1.11-1,3.57,3.57,0,0,1,.67-.29,3.35,3.35,0,0,1,.69-.13V17.33H110c0,.26,0,.78,0,1.58v5.36C110.05,25.16,110.05,25.71,110,25.92Zm-2.49-3.07V21.69a.29.29,0,0,0-.21.08.85.85,0,0,0-.13.27,1.79,1.79,0,0,0-.13.41,2,2,0,0,0,0,.41,5.47,5.47,0,0,0,0,.67,4.08,4.08,0,0,0,.11.49.47.47,0,0,0,.14.14.25.25,0,0,0,.16.06l0,0h0v-1.4Z" transform="translate(0 -0.88)"/></g></g></svg>