<svg xmlns="http://www.w3.org/2000/svg" viewBox="0 0 442.15 125.06"><defs><style>.cls-1{fill:#3c2415;}.cls-2{fill:#ef4237;}</style></defs><title>name</title><g id="Layer_2" data-name="Layer 2"><g id="name"><path class="cls-1" d="M110.6,51.74,101,55c-.2-.64-.7-2.06-1.5-4.25S97.79,46,96.68,43.29H81.77q-1.71,4.18-2.92,7.47c-.8,2.19-1.3,3.59-1.48,4.19l-9-3.06q.78-1.76,6.1-14T84.65,14.55h9.93q5,11.77,10.34,24T110.6,51.74ZM94.4,37.2c-.74-2-1.56-4.19-2.44-6.58s-1.77-4.75-2.66-7h-.11q-1.12,2.85-2.65,7t-2.49,6.6v0H94.41Z" transform="translate(-1.32 -9.83)"/><path class="cls-1" d="M162,14.84c0,3.41-.07,6.82-.09,10.25s0,6.12,0,8.08c0,4.44,0,8.41,0,11.93s.05,5.75.05,6.69l-7,2.84q-7.41-9.85-13.72-17.55t-7.69-9.31l-.15.06q0,6.3.07,15.24t.08,11h-9q0-1.45.08-6.44t0-12.4q0-3,0-7.74c0-3.16,0-6.54-.09-10.16l7.59-3q1.29,1.55,7.65,9.4t13.24,16l.12-.06q0-4-.09-12t-.09-12.75Z" transform="translate(-1.32 -9.83)"/><path class="cls-1" d="M191.21,54.07h-9.7q0-2.49.08-7.2t0-12.81q0-3.39,0-8.6t-.09-10.62h9.7q0,4-.07,9.25t0,9.3q0,8.3,0,12.82C191.17,49.22,191.19,51.85,191.21,54.07Z" transform="translate(-1.32 -9.83)"/><path class="cls-1" d="M260.8,52.81l-9.36,1.79-4.92-26.42-.15,0q-.8,1.82-3.49,8.23T237.42,50h-7.3q-2.73-7.22-5.54-13.79c-1.87-4.39-3-7.07-3.43-8H221l-1.95,9.58q-1.67,8.19-3.18,16.83l-9.07-1.73q3.07-13.71,5.29-24.77t2.56-12.76l9.41-1q.41,1.14,3.25,8.35t6.62,16.46h.23q3-7.35,6.42-15.76l3.66-9,9.58.82q.15,1,2.13,11.94T260.8,52.81Z" transform="translate(-1.32 -9.83)"/><path class="cls-1" d="M313.24,51.74,303.68,55c-.2-.64-.7-2.06-1.5-4.25s-1.75-4.66-2.86-7.41H284.41q-1.71,4.18-2.92,7.47c-.8,2.19-1.3,3.59-1.48,4.19l-9-3.06q.78-1.76,6.1-14t10.16-23.39h9.93q5,11.77,10.34,24T313.24,51.74ZM297,37.2c-.74-2-1.56-4.19-2.44-6.58s-1.77-4.75-2.66-7h-.11c-.74,1.9-1.63,4.24-2.65,7s-1.86,5-2.49,6.6v0h10.37Z" transform="translate(-1.32 -9.83)"/><path class="cls-1" d="M355.06,54.07l-5.76,0-9,0q-3.46,0-6.75,0l-6.41,0q0-4.92.08-10.61c0-3.79,0-7.12,0-10q0-7.71,0-12.33c0-3.08-.06-5.18-.08-6.32h9.73c0,2.37,0,5-.06,7.91s0,5.63,0,8.15q0,5.63,0,10.06c0,3,0,4.66,0,5.11l3,0h3.05c2.57,0,5.1,0,7.57,0l4.57,0Z" transform="translate(-1.32 -9.83)"/><path class="cls-1" d="M59.31,132.81,50,134.6,45,108.18l-.16,0c-.52,1.21-1.69,4-3.49,8.23s-3.62,8.82-5.46,13.63H28.64q-2.73-7.22-5.54-13.79t-3.43-8h-.15c-.19.94-.85,4.13-1.95,9.58s-2.17,11.07-3.18,16.83l-9.07-1.73q3.07-13.71,5.29-24.77t2.56-12.76l9.4-1c.28.76,1.36,3.54,3.26,8.35s4.1,10.29,6.62,16.46h.23q3-7.35,6.42-15.76t3.66-9.05l9.58.82q.15,1,2.12,11.94T59.31,132.81Z" transform="translate(-1.32 -9.83)"/><path class="cls-1" d="M103.94,134.07l-5.83,0-9.49,0q-4.08,0-7.94,0l-5.63,0c0-1,0-3.29.07-6.76s0-7.86,0-13.17c0-2.25,0-5.12,0-8.59s0-7-.09-10.65l5.67,0H98.05l5.51,0v7.24l-3.84,0c-2.23,0-4.46,0-6.71,0H88.44l-4.1,0c0,1.47,0,3,0,4.64s0,3.1,0,4.41l3.88,0H92q3.78,0,7.08,0l4.2,0V117l-4.54,0-6.62,0-3.91,0h-4c0,2.29,0,4.25,0,5.88s0,3,0,4c1.17,0,2.73,0,4.69,0l5.3,0c2.22,0,4.25,0,6.06,0l3.55,0Z" transform="translate(-1.32 -9.83)"/><path class="cls-1" d="M147.45,122.62a9.16,9.16,0,0,1-1.69,5.55,12.93,12.93,0,0,1-4.58,3.85,21.09,21.09,0,0,1-6.28,2,44.32,44.32,0,0,1-7.55.65c-1.83,0-3.48,0-4.93-.1s-2.42-.13-2.89-.17l-.88-7.88c.23,0,1.13.11,2.68.19s3,.14,4.18.14a30.3,30.3,0,0,0,3.42-.24,20.11,20.11,0,0,0,3.43-.64,5.47,5.47,0,0,0,2.59-1.42,3.15,3.15,0,0,0,.75-2.13,3.48,3.48,0,0,0-.82-2.36,9.52,9.52,0,0,0-2.81-2q-1.23-.61-3.33-1.56a30.22,30.22,0,0,1-3.59-1.87,11.25,11.25,0,0,1-4.11-3.9,9.44,9.44,0,0,1-1.25-4.8,8.7,8.7,0,0,1,.93-4.06,10,10,0,0,1,2.44-3.09,15.47,15.47,0,0,1,6.3-3.25,34.41,34.41,0,0,1,9.41-1.15c1.71,0,3.19,0,4.43.08s2,.09,2.33.13l1,7.88c-.49,0-1.26-.07-2.32-.16s-2.37-.13-3.95-.13a21.42,21.42,0,0,0-3.15.23,17.68,17.68,0,0,0-2.89.7,4.58,4.58,0,0,0-2,1.24,2.83,2.83,0,0,0-.75,2,3,3,0,0,0,.82,2,10.08,10.08,0,0,0,2.87,2c.9.45,2,.95,3.15,1.49s2.38,1.16,3.53,1.82a11.79,11.79,0,0,1,4.16,3.84A9.25,9.25,0,0,1,147.45,122.62Z" transform="translate(-1.32 -9.83)"/><path class="cls-1" d="M190.05,122.62a9.22,9.22,0,0,1-1.68,5.55,13,13,0,0,1-4.59,3.85,21.09,21.09,0,0,1-6.28,2,44.29,44.29,0,0,1-7.54.65c-1.84,0-3.49,0-4.94-.1s-2.42-.13-2.89-.17l-.88-7.88c.24,0,1.13.11,2.68.19s2.95.14,4.18.14a30.45,30.45,0,0,0,3.43-.24A20,20,0,0,0,175,126a5.51,5.51,0,0,0,2.6-1.42,3.14,3.14,0,0,0,.74-2.13,3.48,3.48,0,0,0-.82-2.36,9.39,9.39,0,0,0-2.81-2c-.82-.41-1.93-.93-3.32-1.56a28.74,28.74,0,0,1-3.59-1.87,11.21,11.21,0,0,1-4.12-3.9,9.43,9.43,0,0,1-1.24-4.8,8.7,8.7,0,0,1,.92-4.06,9.83,9.83,0,0,1,2.45-3.09,15.5,15.5,0,0,1,6.29-3.25,34.41,34.41,0,0,1,9.41-1.15c1.72,0,3.2,0,4.44.08s2,.09,2.33.13l1,7.88c-.49,0-1.26-.07-2.31-.16s-2.38-.13-4-.13a21.42,21.42,0,0,0-3.15.23,17.81,17.81,0,0,0-2.88.7,4.61,4.61,0,0,0-2,1.24,2.83,2.83,0,0,0-.75,2,3.09,3.09,0,0,0,.82,2,10,10,0,0,0,2.88,2c.89.45,1.94.95,3.15,1.49s2.37,1.16,3.53,1.82a11.87,11.87,0,0,1,4.16,3.84A9.33,9.33,0,0,1,190.05,122.62Z" transform="translate(-1.32 -9.83)"/><path class="cls-1" d="M235.85,134.07,230,134l-9.49,0c-2.72,0-5.36,0-7.94,0l-5.63,0c0-1,0-3.29.08-6.76s0-7.86,0-13.17c0-2.25,0-5.12,0-8.59s-.05-7-.09-10.65l5.67,0H230l5.51,0v7.24l-3.84,0c-2.23,0-4.46,0-6.71,0h-4.57l-4.1,0c0,1.47,0,3,0,4.64s0,3.1,0,4.41l3.88,0H224q3.78,0,7.08,0l4.2,0V117l-4.54,0-6.62,0-3.91,0h-4c0,2.29,0,4.25,0,5.88s0,3,0,4c1.17,0,2.73,0,4.69,0l5.3,0q3.34,0,6.06,0l3.55,0Z" transform="translate(-1.32 -9.83)"/><path class="cls-1" d="M291.14,94.84c0,3.41-.07,6.82-.09,10.25s0,6.12,0,8.08c0,4.44,0,8.41,0,11.93s.05,5.75.05,6.69l-7,2.84q-7.41-9.85-13.73-17.55t-7.69-9.31l-.15.06q0,6.3.08,15.24t.07,11h-9q0-1.45.07-6.44t0-12.4q0-3,0-7.74c0-3.16,0-6.54-.09-10.16l7.59-3q1.28,1.54,7.64,9.4t13.24,16l.12-.06q0-4-.09-12t-.08-12.75Z" transform="translate(-1.32 -9.83)"/><path class="cls-1" d="M343.15,113.71c0,1.48,0,3.14-.08,5s0,3.41,0,4.75c0,1.84,0,3.68,0,5.55s.05,3.56.05,5.1a25.7,25.7,0,0,1-2.7.24c-1.54.1-2.85.14-3.92.14a47.68,47.68,0,0,1-11.91-1.36,26,26,0,0,1-9.77-4.91,17.06,17.06,0,0,1-4.75-5.8,17.23,17.23,0,0,1-1.79-8,16.18,16.18,0,0,1,2.46-8.84,19.86,19.86,0,0,1,7-6.54,30.45,30.45,0,0,1,8.72-3.4,49,49,0,0,1,11.09-1.17l1.36,0h1.16l1,8.12h-2.49a42.55,42.55,0,0,0-6.38.5,25.78,25.78,0,0,0-6.1,1.61,13.52,13.52,0,0,0-5.81,4.24,9.7,9.7,0,0,0-2.13,6.07,10.75,10.75,0,0,0,1.69,6.15,12,12,0,0,0,4.29,3.9,18.72,18.72,0,0,0,4.53,1.65,28.46,28.46,0,0,0,5.11.69c0-.37,0-1.69,0-4s0-5.52-.07-9.76Z" transform="translate(-1.32 -9.83)"/><path class="cls-1" d="M389.94,134.07l-5.83,0-9.49,0c-2.72,0-5.36,0-7.94,0l-5.63,0c0-1,.05-3.29.08-6.76s0-7.86,0-13.17c0-2.25,0-5.12,0-8.59s-.05-7-.09-10.65l5.67,0h17.33l5.51,0v7.24l-3.84,0c-2.23,0-4.46,0-6.71,0h-4.57l-4.1,0c0,1.47,0,3,0,4.64s0,3.1,0,4.41l3.88,0H378q3.78,0,7.08,0l4.2,0V117l-4.54,0-6.62,0-3.91,0h-4c0,2.29,0,4.25,0,5.88s0,3,0,4c1.17,0,2.73,0,4.69,0l5.3,0q3.35,0,6.06,0l3.55,0Z" transform="translate(-1.32 -9.83)"/><path class="cls-1" d="M443.47,131.41l-9,3.48c-.72-1-2.15-2.94-4.27-5.65s-5.36-6.93-9.69-12.63l.14-.58a11.34,11.34,0,0,0,2.55-1,10.24,10.24,0,0,0,2.64-1.82,8,8,0,0,0,1.64-2.28,7.37,7.37,0,0,0,.56-3.08,5.73,5.73,0,0,0-.92-3.19,5.48,5.48,0,0,0-2.54-2.08,9.23,9.23,0,0,0-2.72-.69c-.94-.09-1.85-.13-2.73-.13h-1.75q0,3.48-.05,7.13c0,2.43,0,4.62,0,6.55q0,4.77,0,10.44t.05,8.19h-9.69q0-2.31.07-6.81t0-13.29q0-2.34,0-6.7t-.1-12.43l3.53,0c1.79,0,3.45-.06,5-.06,2.91,0,5.44.08,7.58.26a25.57,25.57,0,0,1,6.05,1.23,12.07,12.07,0,0,1,6,4,9.61,9.61,0,0,1,2,5.9,10.11,10.11,0,0,1-2.08,6.42,16.41,16.41,0,0,1-4.25,4v.18q3,3.84,6.49,7.81A66.85,66.85,0,0,1,443.47,131.41Z" transform="translate(-1.32 -9.83)"/><path class="cls-2" d="M106.6,47.29,97,50.5c-.2-.65-.7-2.06-1.5-4.25s-1.75-4.66-2.86-7.41H77.77Q76.06,43,74.85,46.31c-.8,2.19-1.3,3.58-1.48,4.19l-9-3.06q.78-1.75,6.1-14T80.65,10.1h9.93q5,11.78,10.34,24T106.6,47.29ZM90.4,32.74c-.74-2-1.56-4.18-2.44-6.58s-1.77-4.74-2.66-7h-.11c-.75,1.89-1.63,4.24-2.65,7s-1.86,5-2.49,6.59v0H90.41Z" transform="translate(-1.32 -9.83)"/><path class="cls-2" d="M158,10.39q-.06,5.1-.09,10.25t0,8.08q0,6.64,0,11.93t.05,6.68l-7,2.85q-7.41-9.85-13.72-17.55t-7.69-9.31l-.15.05q0,6.3.07,15.25c.05,6,.08,9.63.08,11h-9c0-1,0-3.12.08-6.45s0-7.45,0-12.39q0-3,0-7.75t-.09-10.15l7.59-3.05q1.29,1.56,7.65,9.41T149,35.18l.12-.06q0-4-.09-12c-.06-5.3-.09-9.54-.09-12.75Z" transform="translate(-1.32 -9.83)"/><path class="cls-2" d="M187.21,49.62h-9.7q0-2.49.08-7.21t0-12.8c0-2.27,0-5.13,0-8.6s0-7-.09-10.62h9.7q0,4-.07,9.24t0,9.31c0,5.52,0,9.8,0,12.81S187.19,47.39,187.21,49.62Z" transform="translate(-1.32 -9.83)"/><path class="cls-2" d="M256.8,48.36l-9.36,1.79-4.92-26.42-.15-.05c-.53,1.22-1.69,4-3.49,8.24s-3.62,8.81-5.46,13.63h-7.3q-2.73-7.21-5.54-13.79c-1.87-4.39-3-7.07-3.43-8H217l-1.95,9.58q-1.67,8.18-3.18,16.83l-9.07-1.73q3.07-13.71,5.29-24.77t2.56-12.76l9.41-1q.41,1.16,3.25,8.35t6.62,16.47h.23q3-7.35,6.42-15.76l3.66-9.06,9.58.82q.15,1,2.13,11.94T256.8,48.36Z" transform="translate(-1.32 -9.83)"/><path class="cls-2" d="M309.24,47.29l-9.56,3.21c-.2-.65-.7-2.06-1.5-4.25s-1.75-4.66-2.86-7.41H280.41q-1.71,4.19-2.92,7.47c-.8,2.19-1.3,3.58-1.48,4.19l-9-3.06q.78-1.75,6.1-14T283.29,10.1h9.93q5,11.78,10.34,24T309.24,47.29ZM293,32.74c-.74-2-1.56-4.18-2.44-6.58s-1.77-4.74-2.66-7h-.11c-.74,1.89-1.63,4.24-2.65,7s-1.86,5-2.49,6.59v0h10.37Z" transform="translate(-1.32 -9.83)"/><path class="cls-2" d="M351.06,49.62l-5.76,0-9,0q-3.46,0-6.75,0l-6.41,0q0-4.92.08-10.61t0-10q0-7.71,0-12.33t-.08-6.32h9.73q0,3.54-.06,7.91t0,8.15q0,5.63,0,10.06c0,3,0,4.66,0,5.11l3,0h3.05c2.57,0,5.1,0,7.57,0l4.57,0Z" transform="translate(-1.32 -9.83)"/><path class="cls-2" d="M55.31,128.36,46,130.15,41,103.73l-.16,0c-.52,1.22-1.69,4-3.49,8.24s-3.62,8.81-5.46,13.63H24.64q-2.73-7.22-5.54-13.79t-3.43-8.05h-.15c-.19.94-.85,4.13-1.95,9.58s-2.17,11.06-3.18,16.83l-9.07-1.73q3.07-13.71,5.29-24.77T9.17,90.86l9.4-1c.28.77,1.36,3.55,3.26,8.35s4.1,10.3,6.62,16.47h.23q3-7.35,6.42-15.76t3.66-9.06l9.58.82q.15,1,2.12,11.94T55.31,128.36Z" transform="translate(-1.32 -9.83)"/><path class="cls-2" d="M99.94,129.62l-5.83,0-9.49,0q-4.08,0-7.94,0l-5.63,0q0-1.56.07-6.76t0-13.18c0-2.24,0-5.11,0-8.59s0-7-.09-10.64h5.67l7.4,0,9.93,0h5.51v7.24l-3.84,0c-2.23,0-4.46,0-6.71,0H84.44l-4.1,0c0,1.47,0,3,0,4.64s0,3.1,0,4.41h3.88l3.88,0q3.78,0,7.08,0l4.2,0v5.83l-4.54,0-6.62,0-3.91,0h-4c0,2.29,0,4.24,0,5.87s0,3,0,4c1.17,0,2.73,0,4.69.05h5.3c2.22,0,4.25,0,6.06,0l3.55,0Z" transform="translate(-1.32 -9.83)"/><path class="cls-2" d="M143.45,118.16a9.21,9.21,0,0,1-1.69,5.56,13,13,0,0,1-4.58,3.85,21.09,21.09,0,0,1-6.28,2,44.32,44.32,0,0,1-7.55.65c-1.83,0-3.48,0-4.93-.11s-2.42-.12-2.89-.16l-.88-7.88c.23,0,1.13.1,2.68.19s3,.13,4.18.13a30,30,0,0,0,3.42-.23,20,20,0,0,0,3.43-.65,5.39,5.39,0,0,0,2.59-1.42,3.11,3.11,0,0,0,.75-2.12,3.48,3.48,0,0,0-.82-2.36,9.71,9.71,0,0,0-2.81-2c-.82-.41-1.93-.92-3.33-1.55a30.22,30.22,0,0,1-3.59-1.87,11.33,11.33,0,0,1-4.11-3.9,9.51,9.51,0,0,1-1.25-4.81,8.69,8.69,0,0,1,.93-4,10,10,0,0,1,2.44-3.09,15.61,15.61,0,0,1,6.3-3.26A34.43,34.43,0,0,1,134.87,90c1.71,0,3.19,0,4.43.07s2,.1,2.33.14l1,7.88c-.49,0-1.26-.08-2.32-.16s-2.37-.14-3.95-.14a20.11,20.11,0,0,0-3.15.24,17.68,17.68,0,0,0-2.89.7,4.66,4.66,0,0,0-2,1.23,2.85,2.85,0,0,0-.75,2,3,3,0,0,0,.82,2,10.28,10.28,0,0,0,2.87,2c.9.45,2,.94,3.15,1.49s2.38,1.15,3.53,1.82a11.79,11.79,0,0,1,4.16,3.84A9.24,9.24,0,0,1,143.45,118.16Z" transform="translate(-1.32 -9.83)"/><path class="cls-2" d="M186.05,118.16a9.27,9.27,0,0,1-1.68,5.56,13.07,13.07,0,0,1-4.59,3.85,21.09,21.09,0,0,1-6.28,2,44.29,44.29,0,0,1-7.54.65c-1.84,0-3.49,0-4.94-.11s-2.42-.12-2.89-.16l-.88-7.88c.24,0,1.13.1,2.68.19s2.95.13,4.18.13a30.13,30.13,0,0,0,3.43-.23,19.88,19.88,0,0,0,3.42-.65,5.43,5.43,0,0,0,2.6-1.42,3.1,3.1,0,0,0,.74-2.12,3.48,3.48,0,0,0-.82-2.36,9.57,9.57,0,0,0-2.81-2c-.82-.41-1.93-.92-3.32-1.55a28.74,28.74,0,0,1-3.59-1.87,11.29,11.29,0,0,1-4.12-3.9,9.5,9.5,0,0,1-1.24-4.81,8.69,8.69,0,0,1,.92-4,9.83,9.83,0,0,1,2.45-3.09,15.63,15.63,0,0,1,6.29-3.26A34.43,34.43,0,0,1,177.47,90c1.72,0,3.2,0,4.44.07s2,.1,2.33.14l1,7.88c-.49,0-1.26-.08-2.31-.16s-2.38-.14-4-.14a20.11,20.11,0,0,0-3.15.24,17.81,17.81,0,0,0-2.88.7,4.69,4.69,0,0,0-2,1.23,2.85,2.85,0,0,0-.75,2,3.09,3.09,0,0,0,.82,2,10.2,10.2,0,0,0,2.88,2c.89.45,1.94.94,3.15,1.49s2.37,1.15,3.53,1.82a11.87,11.87,0,0,1,4.16,3.84A9.32,9.32,0,0,1,186.05,118.16Z" transform="translate(-1.32 -9.83)"/><path class="cls-2" d="M231.85,129.62l-5.83,0-9.49,0c-2.72,0-5.36,0-7.94,0l-5.63,0q0-1.56.08-6.76t0-13.18c0-2.24,0-5.11,0-8.59s-.05-7-.09-10.64h5.67l7.4,0,9.93,0h5.51v7.24l-3.84,0c-2.23,0-4.46,0-6.71,0h-4.57l-4.1,0c0,1.47,0,3,0,4.64s0,3.1,0,4.41h3.88l3.88,0q3.78,0,7.08,0l4.2,0v5.83l-4.54,0-6.62,0-3.91,0h-4c0,2.29,0,4.24,0,5.87s0,3,0,4c1.17,0,2.73,0,4.69.05h5.3q3.34,0,6.06,0l3.55,0Z" transform="translate(-1.32 -9.83)"/><path class="cls-2" d="M287.14,90.39q-.06,5.1-.09,10.25t0,8.08c0,4.43,0,8.41,0,11.93s.05,5.75.05,6.68l-7,2.85q-7.41-9.86-13.73-17.55t-7.69-9.31l-.15.05q0,6.3.08,15.25c.05,6,.07,9.63.07,11h-9c0-1,0-3.12.07-6.45s0-7.45,0-12.39q0-3,0-7.75t-.09-10.15l7.59-3,7.64,9.41q6.36,7.86,13.24,15.94l.12-.06q0-4-.09-12c-.06-5.3-.08-9.54-.08-12.75Z" transform="translate(-1.32 -9.83)"/><path class="cls-2" d="M339.15,109.26c0,1.48,0,3.13-.08,5s0,3.41,0,4.75c0,1.83,0,3.68,0,5.54s.05,3.57.05,5.11q-.39.09-2.7.24c-1.54.09-2.85.14-3.92.14a47.68,47.68,0,0,1-11.91-1.36,26.12,26.12,0,0,1-9.77-4.91A17,17,0,0,1,304.28,110a16.24,16.24,0,0,1,2.46-8.85,19.93,19.93,0,0,1,7-6.53,30.17,30.17,0,0,1,8.72-3.4A49,49,0,0,1,333.58,90h1.36c.4,0,.79,0,1.16,0l1,8.11h-2.49a43.91,43.91,0,0,0-6.38.5,26.78,26.78,0,0,0-6.1,1.61,13.62,13.62,0,0,0-5.81,4.25,9.7,9.7,0,0,0-2.13,6.07,10.75,10.75,0,0,0,1.69,6.15,12,12,0,0,0,4.29,3.9,18.72,18.72,0,0,0,4.53,1.65,28.46,28.46,0,0,0,5.11.69c0-.37,0-1.69,0-4s0-5.51-.07-9.75Z" transform="translate(-1.32 -9.83)"/><path class="cls-2" d="M385.94,129.62l-5.83,0-9.49,0c-2.72,0-5.36,0-7.94,0l-5.63,0q0-1.56.08-6.76t0-13.18c0-2.24,0-5.11,0-8.59s-.05-7-.09-10.64h5.67l7.4,0,9.93,0h5.51v7.24l-3.84,0c-2.23,0-4.46,0-6.71,0h-4.57l-4.1,0c0,1.47,0,3,0,4.64s0,3.1,0,4.41h3.88l3.88,0q3.78,0,7.08,0l4.2,0v5.83l-4.54,0-6.62,0-3.91,0h-4c0,2.29,0,4.24,0,5.87s0,3,0,4c1.17,0,2.73,0,4.69.05h5.3q3.35,0,6.06,0l3.55,0Z" transform="translate(-1.32 -9.83)"/><path class="cls-2" d="M439.47,127l-9,3.49c-.72-1.05-2.15-2.94-4.27-5.65s-5.36-6.93-9.69-12.63l.14-.59a11.22,11.22,0,0,0,2.55-1,10.49,10.49,0,0,0,2.64-1.82,8,8,0,0,0,1.64-2.28,7.41,7.41,0,0,0,.56-3.08,5.7,5.7,0,0,0-.92-3.19,5.48,5.48,0,0,0-2.54-2.08,8.65,8.65,0,0,0-2.72-.69c-.94-.09-1.85-.13-2.73-.13h-1.75q0,3.48-.05,7.13t0,6.55q0,4.77,0,10.44t.05,8.19h-9.69q0-2.31.07-6.81t0-13.29q0-2.34,0-6.71t-.1-12.42l3.53-.06c1.79,0,3.45-.06,5-.06q4.37,0,7.58.27a24.61,24.61,0,0,1,6.05,1.23,12.07,12.07,0,0,1,6,4,9.59,9.59,0,0,1,2,5.9,10.11,10.11,0,0,1-2.08,6.42,16.76,16.76,0,0,1-4.25,4v.18q3,3.84,6.49,7.8A69.07,69.07,0,0,1,439.47,127Z" transform="translate(-1.32 -9.83)"/></g></g></svg>