<svg xmlns="http://www.w3.org/2000/svg" viewBox="0 0 32 32"><defs><style>.cls-1{fill:#3c2415;}.cls-2{fill:#fde596;}</style></defs><title>tenor</title><g id="Layer_2" data-name="Layer 2"><g id="logo"><circle class="cls-1" cx="16" cy="16" r="16"/><path class="cls-2" d="M16.16,14.83h7.71A7.34,7.34,0,0,1,24,16.19a8.56,8.56,0,0,1-1,4.12,6.9,6.9,0,0,1-2.76,2.83,8.14,8.14,0,0,1-4.11,1A8,8,0,0,1,13,23.52a8,8,0,0,1-4.35-4.34,8.22,8.22,0,0,1,0-6.36A8,8,0,0,1,13,8.48a8,8,0,0,1,3.17-.64A7.75,7.75,0,0,1,21.64,10l-2.22,2.14a4.52,4.52,0,0,0-3.26-1.27,4.89,4.89,0,0,0-2.53.69,5.21,5.21,0,0,0-1.85,1.88,5.27,5.27,0,0,0,0,5.18,5.21,5.21,0,0,0,1.85,1.88,4.89,4.89,0,0,0,2.53.69,5.48,5.48,0,0,0,1.71-.26A4.18,4.18,0,0,0,20,19.39a4,4,0,0,0,.55-.92,3.64,3.64,0,0,0,.24-.83H16.16Z"/></g></g></svg>